PathFileType	4	(X/Y/Z)	Apose_0-50.trc
DataRate	CameraRate	NumFrames	NumMarkers	Units	OrigDataRate	OrigDataStartFrame	OrigNumFrames
30	30	6	22	m	30	30	50
Frame#	Time	Hip			RHip			RKnee			RAnkle			RBigToe			RSmallToe			RHeel			LHip			LKnee			LAnkle			LBigToe			LSmallToe			LHeel			Neck			Head			Nose			RShoulder			RElbow			RWrist			LShoulder			LElbow			LWrist		
		X1	Y1	Z1	X2	Y2	Z2	X3	Y3	Z3	X4	Y4	Z4	X5	Y5	Z5	X6	Y6	Z6	X7	Y7	Z7	X8	Y8	Z8	X9	Y9	Z9	X10	Y10	Z10	X11	Y11	Z11	X12	Y12	Z12	X13	Y13	Z13	X14	Y14	Z14	X15	Y15	Z15	X16	Y16	Z16	X17	Y17	Z17	X18	Y18	Z18	X19	Y19	Z19	X20	Y20	Z20	X21	Y21	Z21	X22	Y22	Z22
31	1.0333333333333334	0.03516037939912113	0.9219572285381745	0.35566730469789	0.026452638060673325	0.8811534555630671	0.462015479024939	0.004244647300922358	0.5061526723505237	0.4956678398343713	-0.010815060538508439	0.12048872216719268	0.5155705010724814	0.1951205510347859	0.033780182937264466	0.5611880241796383	0.147233336759616	0.02997513731106078	0.627519295840599	-0.03477664828932616	0.03574441165193304	0.49462912058401876	0.028387074630413962	0.8804722714474618	0.24264876213385603	0.01205279823315506	0.5070382692642258	0.22353645616269327	0.0032710692718796565	0.1235843866468238	0.2071163835140755	0.22171598294456812	0.048870968129497254	0.18624526853915746	0.16852114502960963	0.033257060312305284	0.1258472285889569	-0.051414643462584696	0.041764554859286276	0.2091075529037132	0.04708179213700272	1.5730269986604817	0.3472393202915328	0.23794789333632893	1.7634615148338197	0.33652081228422887	0.2269656237250562	1.5821393939032453	0.3256328274667954	0.01930786035820256	1.4913489234756532	0.5309701343085845	0.07294163185039645	1.2362888789706223	0.7151490449745859	0.11872239792912553	1.0460846386266107	0.8861028845163335	0.0132862135620532	1.481695509447544	0.1446830140990525	0.027817188519478404	1.2263215339322295	-0.0009115990194826285	0.08199645050593363	1.0193260745666695	-0.14658511713014044
32	1.0666666666666667	0.035522587396514954	0.9214558516758965	0.3535511117612055	0.02683845862372845	0.8801325954926944	0.4596754157025368	0.0038942108941846056	0.5080952889906002	0.4951719677946113	-0.0036641866631918173	0.11117743649940769	0.5152758756293782	0.19426964068963878	0.03307637519014362	0.5603184753837266	0.14609892777945252	0.030612510643801074	0.6295201985233353	-0.035367737944208895	0.03657724013174555	0.4955466777055745	0.02848276005526402	0.8807561389902385	0.24302539614503715	0.011434848461684053	0.5075062916750848	0.2238371065808429	0.008025339204371616	0.11531530435721223	0.21092104219475327	0.2210951839647761	0.04827727664680435	0.1859830441025351	0.16720674928010532	0.03378993484417879	0.12506349220438032	-0.05155070124848338	0.039614869761460295	0.21005531601811872	0.04802122464765504	1.5734818435598186	0.3470069205117916	0.23732993758163853	1.7621720429811558	0.3381697084197869	0.2250079976837648	1.5815348561610012	0.32568508803025376	0.020323006957045173	1.4923863279693186	0.5300885705067799	0.052796773058042853	1.2326694715361526	0.7119074105685332	0.12022691004622314	1.0448951609187018	0.8868739402409922	0.015493708022086303	1.4812011029187269	0.1453052189370602	0.031516985689592276	1.2259444817512264	0.00024309374466738155	0.07742389226183753	1.0188361314585352	-0.14982951798184313
33	1.1	0.036046992526536516	0.9208939320812453	0.3536767889155115	0.02913719750861691	0.8811650633103503	0.46079506264523906	0.0048009742952252465	0.5096944437072353	0.4957856043002995	-0.0037467967394903307	0.10952099307699725	0.514067615593882	0.2045342160756661	0.0282741307816898	0.5692536211170456	0.14684985261286973	0.030324578491676423	0.6299405936773412	-0.036215680446056144	0.037725612299801356	0.49522827216125914	0.028454394659695462	0.8801084725308759	0.2419597809074034	0.012840167630283785	0.5065898397297562	0.2246387072128272	0.0018030337092493362	0.12514976507167266	0.20813623044901844	0.22094814450157854	0.049181721307340935	0.18677398320633481	0.16594243419420399	0.03334696283719189	0.12501149572429446	-0.04221742896993159	0.05890548163395248	0.20298872877356725	0.048000726205150245	1.5731331366401697	0.3464552835973134	0.2366187427022868	1.7634276088104415	0.3380248742042511	0.22591202654804754	1.5833527273466013	0.3273479769756252	0.02054434477665032	1.4920462253501194	0.5295440191514609	0.07519724806938746	1.2348002068982848	0.715578223178655	0.12045370437484747	1.0440639676031591	0.88662427320145	0.015422395216251819	1.4817767114012277	0.14466559500261575	0.02955445062263321	1.2249838170135097	0.0012568304430057569	0.07578552911284885	1.0182252723392562	-0.14871445633603275
34	1.1333333333333333	0.03734253192008206	0.9193802188618675	0.35409329241839793	0.029374341043674985	0.8798049362850753	0.46062597729079274	0.004865377935961638	0.5089891270549615	0.4950418492747964	-0.004765799106503453	0.1090208579491289	0.5144605046101507	0.20196916091622852	0.03818750759474151	0.5689130916460722	0.14461934080051547	0.03170277938992739	0.6287802931468572	-0.03645539952018492	0.03574896434729961	0.49648477875076724	0.029313074845768936	0.8794873491160646	0.2418901883499277	0.013264075485267868	0.5053858723413586	0.2233718421933092	0.0024207199783466736	0.12470194161847162	0.20811643777124844	0.2201443718952023	0.04746854633705217	0.18509998338548428	0.16722761287112645	0.03403973691823408	0.12585139902940506	-0.044399778215118944	0.05884831004242749	0.20372484382232203	0.04741994399154753	1.5735725434976306	0.3462971089850006	0.23585640902759844	1.7646748523258609	0.33705106150434655	0.22536590387148858	1.584359768982355	0.3264041743786782	0.021066934942306034	1.4923307928120884	0.5293523588773987	0.05473936289410673	1.2321882026161337	0.7104944496048058	0.12104424427674357	1.0441867359162098	0.8864431942111914	0.015762674049702514	1.4822387898395166	0.14524720010707906	0.02810157029090881	1.2244350394479229	-0.00010626465714805416	0.0795381953605596	1.0232392550476719	-0.15115808945975479
35	1.1666666666666667	0.037621754773847466	0.9195139682921205	0.3543021763328852	0.02983597720980691	0.8807648912859741	0.4617342678421696	0.0047300822340769905	0.508571990742416	0.49473090966511896	-0.012858009174223178	0.12165731004757523	0.5154597293917081	0.19490123786512664	0.03281464106525183	0.5601776218606543	0.1468130534274794	0.02944722824831552	0.6290077889292269	-0.03428493703293383	0.03638702194197856	0.4951867857753608	0.02938494110613015	0.8803864187387073	0.24224027232379086	0.01344862029967924	0.5082146279033761	0.22324331199569772	0.001104888175866856	0.1254155534152214	0.20991838319042985	0.21962833173436339	0.047852252009832064	0.1866496101637312	0.1664776081189506	0.03519081152854338	0.12488823415627857	-0.04442349322089973	0.059729007775959166	0.20412632561165323	0.04746009887200497	1.573029139065923	0.34597859961033806	0.30094750410596705	1.7727956626841388	0.2730983122955132	0.2271056654706484	1.5863044351442064	0.32783443566020415	0.020719923771229505	1.4912857468924767	0.5291721972515002	0.057657415517397476	1.231944392956936	0.7130551401921973	0.12356486958333948	1.045293958079442	0.8869785066520957	0.015031661487718876	1.4817576157491896	0.14421409131070356	0.0273124400518651	1.225351049102087	0.0011590902247475485	0.07752191401631432	1.0243448506799337	-0.14904507250437316
36	1.2	0.03910497873162668	0.920659128202053	0.35521201368513655	0.030047047030942357	0.8798298014513488	0.46159234477066735	0.005467481335866183	0.5064203551590944	0.49501524244605866	-0.011652286384722408	0.11936966654083808	0.5151702564028795	0.19377070138230865	0.03031902609539586	0.5623819389422208	0.14751492708455136	0.030299570458069115	0.6290411260784214	-0.04819623048367599	0.047220658606748935	0.505665560154693	0.031363367420300325	0.879232948790199	0.24303909517805636	0.013927091739738653	0.5066394045441537	0.22244736650734598	0.007160248960161709	0.11687743553673942	0.21079497663475633	0.21959785177715146	0.04712611203740445	0.18566137954140557	0.1651953701732126	0.034097963632547974	0.12485504921640311	-0.045251865687920265	0.05893054988380882	0.20430522913155433	0.04766306716791897	1.5734309143566017	0.3478018395751908	0.29682749703648986	1.7765126592560618	0.2767586581573693	0.22900150129024077	1.5902667441985603	0.3270172867755951	0.022483085109770304	1.4918058428106677	0.5318798356246404	0.05459146366908432	1.2316728356422706	0.7116609159818379	0.12193490592486628	1.0437280907695077	0.8867004403880041	0.015225892093338692	1.4821567334367014	0.14588553233315776	0.029451881392926548	1.2263049727468232	0.002330142407503104	0.07493058571936952	1.0169158171685504	-0.14704941273456867
